<?xml version="1.0" encoding="utf-8" ?>
<svg xmlns="http://www.w3.org/2000/svg" xmlns:xlink="http://www.w3.org/1999/xlink" width="1519" height="1519">
	<path transform="scale(2.9668 2.9668)" d="M255.958 228.744C263.534 219.362 273.06 211.328 281.541 202.761L416.791 68.0706C420.355 64.5303 423.766 60.981 427.832 58.0034C428.042 58.3067 427.832 112.337 427.832 118.771C418.329 127.639 409.668 136.291 400.455 145.489L300.953 243.86C295.61 249.227 289.689 254.056 284.566 259.632C274.215 270.897 265.058 282.745 255.958 294.987C254.259 292.63 252.86 290.063 251.132 287.72C233.596 263.941 211.103 244.398 190.15 223.729L107.837 142.432C101.061 135.702 94.0059 129.178 87.3586 122.331C86.3125 121.196 85.296 120.133 84.5464 118.771C84.19 112.239 84.5384 105.483 84.5401 98.9302L84.5464 58.0034C96.2979 66.9814 111.045 83.4459 121.794 94.076L237.957 209.974C243.729 215.664 251.434 222.143 255.958 228.744Z"/>
	<path transform="scale(2.9668 2.9668)" d="M255.958 381.317C260.309 374.623 266.8 369.159 272.412 363.533L389.408 247.148C402.193 234.472 414.717 221.541 427.832 209.201C428.124 211.052 427.886 213.261 427.871 215.149L427.832 271.652C414.582 285.445 400.483 298.442 386.904 311.908L279.365 418.761C272.558 425.579 258.834 436.675 255.958 445.902C252.757 438.577 248.221 434.099 242.708 428.569L97.0319 283.169C93.4561 279.61 89.9909 275.971 85.919 272.965L84.5464 271.652C85.1612 252.908 85.42 228.824 84.5464 210.114C90.0234 213.651 94.4988 218.998 99.0654 223.618L218.805 342.971C230.546 354.523 245.577 368.738 255.958 381.317Z"/>
</svg>
